<?xml version="1.0" encoding="UTF-8"?>
<svg xmlns="http://www.w3.org/2000/svg" viewBox="0 0 511 338">
  <defs>
    <style>
      .cls-1 {
        fill: #0f0f0f;
      }

      .cls-2, .cls-3, .cls-4 {
        fill: #fef1ef;
      }

      .cls-3 {
        font-size: 140.23px;
        letter-spacing: .03em;
      }

      .cls-3, .cls-4 {
        font-family: SmartSansStd-Bold, 'Smart Sans Std';
        font-weight: 700;
        stroke: snow;
        stroke-miterlimit: 10;
        stroke-width: 5px;
      }

      .cls-5 {
        fill: #efb607;
      }

      .cls-4 {
        font-size: 141.48px;
        letter-spacing: .03em;
      }

      .cls-6 {
        fill: snow;
      }
    </style>
  </defs>
  <g id="Layer_2" data-name="Layer 2">
    <g>
      <g>
        <g>
          <polygon class="cls-1" points="18.5 59.75 376.5 7.64 376.5 151.74 18.5 203.84 18.5 59.75"/>
          <path class="cls-6" d="M374,10.53V149.58S21,200.95,21,200.95V61.91S374,10.53,374,10.53m5-5.78l-5.72,.83L20.28,56.96l-4.28,.62v4.33s0,139.04,0,139.04v5.78s5.72-.83,5.72-.83l353-51.38,4.28-.62v-4.33s0-139.04,0-139.04V4.75h0Z"/>
        </g>
      </g>
      <g>
        <g>
          <polygon class="cls-5" points="91.18 179.14 491.49 121.03 491.82 268.95 91.51 327.06 91.18 179.14"/>
          <path class="cls-6" d="M489,123.92l.32,142.87-395.32,57.39-.32-142.87,395.32-57.39m4.99-5.78l-5.71,.83L92.97,176.36l-4.29,.62v4.34s.33,142.87,.33,142.87v5.77s5.72-.83,5.72-.83l395.32-57.39,4.29-.62v-4.34s-.33-142.87-.33-142.87v-5.77h-.01Z"/>
        </g>
      </g>
    </g>
  </g>
  <g id="Layer_1" data-name="Layer 1">
    <g>
      <g>
        <polygon class="cls-1" points="374 149.29 21 200.66 21 61.62 374 10.24 374 149.29"/>
        <g>
          <path class="cls-2" d="M79.34,91.13v79.37s-21.78,3.17-21.78,3.17V94.3s-14.76,2.15-14.76,2.15v-15.99s51.16-7.45,51.16-7.45v15.99s-14.62,2.13-14.62,2.13Z"/>
          <path class="cls-2" d="M135.56,162.31c-.98-1.96-2.11-5.3-2.11-10.91v-21.17c0-3.51-1.69-4.94-5.2-4.43l-4.64,.68v37.58s-21.78,3.17-21.78,3.17V71.87s27.83-4.05,27.83-4.05c18.97-2.76,25.16,3.35,25.16,17.37v8.27c0,14.02-6.18,19.55-14.62,21.34l-2.11,.45v.42l2.53-.23c10.82-1.01,14.62,5.44,14.62,15.96v14.02c0,6.31,.28,10.48,2.11,12.31v1.4l-21.79,3.17Zm-2.39-74.39c0-3.51-1.69-4.94-5.2-4.43l-4.5,.65v24.54l4.5-.65c3.51-.51,5.2-2.44,5.2-5.94v-14.16Z"/>
          <path class="cls-2" d="M166.62,157.79V62.44s21.78-3.17,21.78-3.17v95.36s-21.78,3.17-21.78,3.17Z"/>
          <path class="cls-2" d="M225.65,118.35l-6.04,.88v30.85l-21.78,3.17V57.9s27.83-4.05,27.83-4.05c18.97-2.76,25.16,3.35,25.16,17.37v22.44c0,14.02-6.18,21.93-25.16,24.7Zm3.51-44.4c0-3.51-1.69-4.94-5.2-4.43l-4.5,.65v33.09l4.5-.65c3.51-.51,5.2-2.44,5.2-5.95v-22.72Z"/>
          <path class="cls-2" d="M260.09,144.19V48.83s21.78-3.17,21.78-3.17V124.47s17.01-2.48,17.01-2.48v16.55l-38.79,5.65Z"/>
          <path class="cls-2" d="M307.17,137.34V41.98s41.32-6.01,41.32-6.01v15.99s-19.54,2.84-19.54,2.84v21.88l18.69-2.72v16.83l-18.69,2.72v24.12s19.54-2.84,19.54-2.84v16.55l-41.32,6.01Z"/>
        </g>
      </g>
      <g>
        <polygon class="cls-5" points="489.32 266.5 94 323.88 93.68 181.02 489 123.63 489.32 266.5"/>
        <g>
          <path class="cls-2" d="M145.22,291.09c-.99-1.98-2.13-5.35-2.14-11.01l-.05-21.36c0-3.54-1.71-4.99-5.23-4.48l-4.66,.68,.08,37.92-21.88,3.18-.21-96.21,27.95-4.06c19.06-2.77,25.29,3.41,25.32,17.55l.02,8.35c.03,14.15-6.17,19.72-14.64,21.51l-2.12,.45v.42s2.54-.23,2.54-.23c10.87-1.01,14.7,5.51,14.72,16.12l.03,14.15c.01,6.37,.31,10.57,2.15,12.43,0,0,0,1.13,0,1.42l-21.88,3.18Zm-2.57-75.06c0-3.54-1.71-4.99-5.24-4.48l-4.52,.66,.06,24.76,4.52-.66c3.53-.51,5.22-2.46,5.21-5.99l-.03-14.29Z"/>
          <path class="cls-2" d="M202.39,284.49c-21.6,3.14-26.42-5.79-26.46-21.35l-.16-72.72,21.88-3.18,.17,75.83c0,2.83,.58,5.44,4.53,4.86,3.95-.57,4.51-3.34,4.51-6.17l-.17-75.83,21.88-3.18,.16,72.72c.03,15.56-4.74,25.88-26.34,29.01Z"/>
          <path class="cls-2" d="M292.74,269.68l-.11-50.23c-.01-5.66,.39-12.79,.39-12.79l-.56,.08s-.97,7.22-1.81,13l-7.65,51.35-17.22,2.5-7.88-49.1c-.86-5.54-1.86-12.47-1.86-12.47l-.56,.08s.44,7.01,.45,12.67l.11,50.23-17.93,2.6-.21-96.21,28.24-4.1,6.59,43.62c.72,4.85,1.3,13.26,1.3,13.26l.56-.08s.55-8.57,1.24-13.62l6.4-45.51,29.51-4.28,.21,96.21-19.2,2.79Z"/>
          <path class="cls-2" d="M349.07,261.5l-27.39,3.98-.21-96.21,26.96-3.91c19.06-2.77,25.29,3.41,25.32,17.55v5.66c.04,14.15-6.02,19.7-14.34,21.47l-2.12,.45v.42s2.68-.25,2.68-.25c11.72-1.14,14.98,6.74,15.01,17.35v6.37c.05,15.56-6.71,24.33-25.91,27.11Zm3.22-75.9c0-3.54-1.71-4.99-5.23-4.48l-3.81,.55,.05,23.49,3.81-.55c3.53-.51,5.22-2.46,5.21-5.99l-.03-13.02Zm.79,38.52c0-3.54-1.71-4.99-5.24-4.48l-4.52,.66,.06,26.03,4.52-.66c3.53-.51,5.22-2.46,5.21-5.99l-.03-15.56Z"/>
          <path class="cls-2" d="M384.36,256.38l-.21-96.21,21.88-3.18,.18,79.51,17.08-2.48,.04,16.69-38.96,5.66Z"/>
          <path class="cls-2" d="M431.65,249.51l-.21-96.21,41.51-6.03,.04,16.13-19.62,2.85,.05,22.07,18.78-2.73,.04,16.98-18.78,2.73,.05,24.33,19.62-2.85,.04,16.69-41.51,6.03Z"/>
        </g>
      </g>
    </g>
  </g>
</svg>