<svg viewBox="0 0 567 567" fill="none" xmlns="http://www.w3.org/2000/svg">
<g clip-path="url(#clip0_217_2)">
<path d="M331.68 72.95L186.2 324.93H283.19L331.68 240.94L428.67 408.93H525.65L331.68 72.95Z" stroke="white" stroke-width="40" stroke-miterlimit="3"/>
<path d="M331.68 72.95L186.2 324.93H283.19L331.68 240.94L428.67 408.93H525.65L331.68 72.95Z" fill="#F0B706"/>
<path d="M331.68 72.95L186.2 324.93H283.19L331.68 240.94L428.67 408.93H525.65L331.68 72.95Z" stroke="#0B0B0B" stroke-width="23" stroke-miterlimit="3"/>
<path d="M481.07 492.93L335.59 240.94L287.09 324.93L335.59 408.93L142.33 408.92L94.4099 491.93L480.7 492.93H481.07Z" stroke="white" stroke-width="40" stroke-miterlimit="3"/>
<path d="M481.07 492.93L335.59 240.94L287.09 324.93L335.59 408.93L142.33 408.92L94.4099 491.93L480.7 492.93H481.07Z" fill="#0F0F0F"/>
<path d="M481.07 492.93L335.59 240.94L287.09 324.93L335.59 408.93L142.33 408.92L94.4099 491.93L480.7 492.93H481.07Z" stroke="#0B0B0B" stroke-width="23" stroke-miterlimit="3"/>
<path d="M31.3501 408.93H322.35L273.85 324.93H176.85L273.85 156.92L225.35 72.92L31.3501 408.93Z" stroke="white" stroke-width="40" stroke-miterlimit="3"/>
<path d="M31.3501 408.93H322.35L273.85 324.93H176.85L273.85 156.92L225.35 72.92L31.3501 408.93Z" fill="white"/>
<path d="M31.3501 408.93H322.35L273.85 324.93H176.85L273.85 156.92L225.35 72.92L31.3501 408.93Z" stroke="#0B0B0B" stroke-width="23" stroke-miterlimit="3"/>
</g>
<defs>
<clipPath id="clip0_217_2">
<rect width="566.93" height="566.93" fill="white"/>
</clipPath>
</defs>
</svg>
