<?xml version="1.0" encoding="UTF-8"?>
<svg id="svg10555" xmlns="http://www.w3.org/2000/svg" viewBox="0 0 566.93 566.93">
  <defs>
    <style>
      .cls-1 {
        fill: #0f0f0f;
      }

      .cls-2 {
        fill: #fff;
      }

      .cls-3 {
        stroke: #fff;
        stroke-width: 30px;
      }

      .cls-3, .cls-4 {
        fill: none;
        stroke-miterlimit: 3;
      }

      .cls-5 {
        fill: #f0b706;
      }

      .cls-4 {
        stroke: #0b0b0b;
        stroke-width: 23px;
      }
    </style>
  </defs>
  <g id="path10527">
    <polygon class="cls-3" points="331.68 72.95 186.2 324.93 283.19 324.93 331.68 240.94 428.67 408.93 525.65 408.93 331.68 72.95"/>
    <polygon class="cls-5" points="331.68 72.95 186.2 324.93 283.19 324.93 331.68 240.94 428.67 408.93 525.65 408.93 331.68 72.95"/>
    <polygon class="cls-4" points="331.68 72.95 186.2 324.93 283.19 324.93 331.68 240.94 428.67 408.93 525.65 408.93 331.68 72.95"/>
  </g>
  <g id="path10529">
    <polygon class="cls-3" points="477.07 492.93 331.59 240.94 283.09 324.93 331.59 408.93 138.33 408.92 90.41 491.93 476.7 492.93 477.07 492.93"/>
    <polygon class="cls-1" points="477.07 492.93 331.59 240.94 283.09 324.93 331.59 408.93 138.33 408.92 90.41 491.93 476.7 492.93 477.07 492.93"/>
    <polygon class="cls-4" points="477.07 492.93 331.59 240.94 283.09 324.93 331.59 408.93 138.33 408.92 90.41 491.93 476.7 492.93 477.07 492.93"/>
  </g>
  <g id="path10531">
    <polygon class="cls-3" points="41.35 408.93 332.35 408.93 283.85 324.93 186.85 324.93 283.85 156.92 235.35 72.92 41.35 408.93"/>
    <polygon class="cls-2" points="41.35 408.93 332.35 408.93 283.85 324.93 186.85 324.93 283.85 156.92 235.35 72.92 41.35 408.93"/>
    <polygon class="cls-4" points="41.35 408.93 332.35 408.93 283.85 324.93 186.85 324.93 283.85 156.92 235.35 72.92 41.35 408.93"/>
  </g>
</svg>